<?xml version="1.0" standalone="no"?>
<!DOCTYPE svg PUBLIC "-//W3C//DTD SVG 20010904//EN"
 "http://www.w3.org/TR/2001/REC-SVG-20010904/DTD/svg10.dtd">
<svg version="1.0" xmlns="http://www.w3.org/2000/svg"
 width="512.000000pt" height="512.000000pt" viewBox="0 0 512.000000 512.000000"
 preserveAspectRatio="xMidYMid meet">

<g transform="translate(0.000000,512.000000) scale(0.100000,-0.100000)"
fill="#000000" stroke="none">
<path d="M2340 5105 c-787 -79 -1462 -481 -1899 -1130 -255 -379 -393 -787
-432 -1271 -11 -141 -10 -184 4 -337 36 -375 115 -654 273 -968 350 -691 1015
-1198 1769 -1347 227 -46 293 -52 511 -52 288 0 528 38 793 126 749 249 1339
821 1609 1559 106 290 152 554 152 869 0 218 -6 284 -52 511 -148 747 -655
1417 -1336 1764 -318 162 -585 239 -955 276 -173 17 -263 17 -437 0z m631
-309 c480 -91 889 -311 1224 -657 172 -178 286 -336 394 -548 173 -339 251
-664 251 -1043 0 -1246 -1025 -2268 -2275 -2268 -436 0 -841 117 -1210 350
-154 97 -251 174 -396 319 -377 376 -602 843 -660 1371 -15 139 -6 475 16 600
90 505 309 918 672 1270 322 313 697 511 1133 599 170 34 243 40 485 36 198
-2 249 -6 366 -29z"/>
<path d="M2474 4060 c-90 -12 -140 -28 -229 -70 -241 -116 -367 -373 -326
-665 10 -73 10 -82 -7 -105 -46 -61 -65 -115 -70 -191 -4 -67 -1 -84 21 -133
27 -59 114 -159 157 -181 17 -9 42 -45 72 -107 98 -195 219 -343 325 -394 72
-35 172 -43 244 -19 134 43 256 177 369 404 38 76 57 104 84 120 19 12 55 44
80 72 112 125 126 261 40 401 l-35 57 12 88 c32 243 -58 471 -236 599 -137 97
-336 146 -501 124z"/>
<path d="M2034 2251 c-538 -220 -779 -430 -880 -766 -24 -81 -27 -106 -28
-260 l-1 -170 1437 -3 1438 -2 6 26 c13 50 -4 306 -25 385 -74 282 -269 493
-621 669 -128 64 -272 127 -370 161 l-65 22 -75 -77 c-50 -52 -94 -87 -136
-107 -59 -29 -68 -31 -156 -27 -123 4 -183 33 -283 134 -40 41 -79 74 -87 73
-7 0 -76 -26 -154 -58z"/>
</g>
</svg>
