<?xml version="1.0" encoding="UTF-8" standalone="no"?>
<svg
   version="1.0"
   width="512.000000pt"
   height="512.000000pt"
   viewBox="0 0 512.000000 512.000000"
   preserveAspectRatio="xMidYMid meet"
   id="svg2876"
   sodipodi:docname="facebook-green.svg"
   inkscape:version="1.2.1 (9c6d41e410, 2022-07-14)"
   xmlns:inkscape="http://www.inkscape.org/namespaces/inkscape"
   xmlns:sodipodi="http://sodipodi.sourceforge.net/DTD/sodipodi-0.dtd"
   xmlns="http://www.w3.org/2000/svg"
   xmlns:svg="http://www.w3.org/2000/svg">
  <defs
     id="defs2880" />
  <sodipodi:namedview
     id="namedview2878"
     pagecolor="#ffffff"
     bordercolor="#000000"
     borderopacity="0.25"
     inkscape:showpageshadow="2"
     inkscape:pageopacity="0.0"
     inkscape:pagecheckerboard="0"
     inkscape:deskcolor="#d1d1d1"
     inkscape:document-units="pt"
     showgrid="false"
     inkscape:zoom="0.86696539"
     inkscape:cx="407.74407"
     inkscape:cy="348.34147"
     inkscape:window-width="1920"
     inkscape:window-height="1017"
     inkscape:window-x="-8"
     inkscape:window-y="-8"
     inkscape:window-maximized="1"
     inkscape:current-layer="svg2876" />
  <g
     transform="translate(0.000000,512.000000) scale(0.100000,-0.100000)"
     fill="#000000"
     stroke="none"
     id="g2874">
    <path
       d="M2347 5100 c-1135 -103 -2057 -914 -2296 -2023 -48 -220 -66 -586 -41 -812 44 -398 183 -784 405 -1126 157 -242 371 -469 615 -651 249 -186 586 -349 880 -423 78 -20 243 -55 258 -55 1 0 2 488 2 1085 l0 1085 -205 0 -205 0 0 350 0 350 204 0 203 0 6 188 c6 201 27 324 82 487 118 354 368 609 710 723 171 57 240 67 470 67 206 0 269 -6 418 -41 l67 -16 -5 -77 c-3 -42 -12 -204 -20 -360 -8 -156 -16 -285 -18 -287 -1 -1 -31 5 -67 14 -44 10 -113 16 -210 16 -177 1 -228 -15 -319 -99 -110 -102 -151 -221 -158 -457 l-5 -158 311 0 311 0 0 -350 0 -350 -305 0 -305 0 0 -1069 0 -1069 118 34 c839 236 1489 862 1756 1689 128 397 153 905 65 1312 -167 772 -671 1420 -1373 1763 -265 130 -484 199 -762 240 -160 23 -442 33 -587 20z"
       id="path2872" />
  </g>
  <path
     style="fill:#308b42;stroke:#308b42;stroke-width:0;fill-opacity:1;stroke-miterlimit:0"
     d="M 273.22979,677.81594 C 247.81616,672.22452 229.8468,666.60606 209.10353,657.76565 141.18994,628.82212 85.715904,580.76338 48.613759,518.72879 24.745299,478.82085 9.8008374,436.46725 2.7115184,388.63879 1.0319879,377.30775 0.83831344,373.03664 0.8438229,347.45042 0.8502588,317.5615 1.8366227,303.46091 5.3795846,282.60932 11.827361,244.66185 27.123752,204.12822 48.624299,168.01593 81.221413,113.26586 130.42277,67.584274 187.69628,38.892891 223.59425,20.909664 259.3202,10.025721 300.96057,4.3868158 c 10.82048,-1.4653004 16.95106,-1.7641383 35.8869,-1.7493242 61.35888,0.048003 103.93912,9.7627224 156.59737,35.7278374 85.23155,42.026586 147.56219,116.300361 175.43234,209.046821 15.01635,49.97153 17.52875,106.272 7.23359,162.09738 -13.19637,71.55715 -53.52011,141.61274 -109.52253,190.27667 -38.90941,33.81076 -81.3343,56.84407 -132.27522,71.81481 -7.85026,2.30707 -14.73198,4.35278 -15.29271,4.54602 -0.81305,0.2802 -1.01951,-28.38315 -1.01951,-141.53941 V 392.71685 h 40.37276 40.37276 v -47.30546 -47.30546 h -41.31378 -41.31376 l 0.56108,-16.10832 c 0.85526,-24.55455 3.20742,-37.56534 8.8005,-48.67923 6.09404,-12.10935 17.87901,-22.92455 29.51958,-27.09043 8.5457,-3.05831 39.48506,-2.95308 54.52719,0.18546 3.91081,0.81599 7.32207,1.27211 7.58058,1.0136 0.25851,-0.25851 1.53585,-19.69197 2.83855,-43.18547 1.30269,-23.4935 2.59018,-45.16205 2.8611,-48.15234 0.43366,-4.78657 0.31675,-5.48621 -0.97738,-5.84927 -3.06533,-0.85996 -16.42666,-3.79389 -23.08366,-5.06881 -9.06912,-1.73686 -55.195,-2.59107 -68.66185,-1.27155 -24.13335,2.36466 -54.42782,13.6483 -74.07013,27.58857 -9.9503,7.06179 -27.43247,24.54522 -34.48628,34.48876 -10.64508,15.00604 -21.44411,39.6916 -26.58162,60.76304 -3.52849,14.47202 -5.76217,35.49096 -5.80722,54.64596 -0.0105,4.48586 -0.25063,10.083 -0.53351,12.43807 l -0.51432,4.28196 h -26.80157 -26.80157 v 47.30546 47.30546 h 27.32298 27.32298 l -0.003,133.55635 c -0.002,73.45599 -0.24197,138.23592 -0.53367,143.95539 -0.44843,8.79239 -0.73144,10.38978 -1.83182,10.33906 -0.7158,-0.033 -6.80683,-1.27126 -13.53562,-2.75171 z"
     id="path4157"
     transform="scale(0.75)" />
  <path
     style="fill:#308b42;fill-opacity:1;stroke:#308b42;stroke-width:0;stroke-miterlimit:0"
     d="M 282.01818,679.19438 C 229.78605,667.96507 191.02739,652.03604 151.10176,625.39034 132.20631,612.77983 118.44724,601.39046 100.807,583.75778 49.036693,532.00962 18.36632,472.35732 4.3786524,396.20959 1.957002,383.02631 1.7395439,378.67968 1.8395906,345.45785 1.9336549,314.22256 2.3053548,306.77735 4.4885276,292.39921 25.01921,157.18631 125.52344,46.803892 258.72397,13.175921 293.74018,4.3356845 324.43772,1.5681352 361.53028,3.9073765 c 50.4607,3.1823034 84.89312,12.3506045 130.41554,34.7256605 71.32342,35.056705 127.02405,92.332643 159.29213,163.797193 22.22218,49.21573 31.76085,96.98542 30.05691,150.52503 -1.7072,53.64195 -12.28027,96.19228 -35.45718,142.6941 -36.30453,72.8409 -97.6065,130.04596 -173.37904,161.79184 -14.76359,6.1854 -51.30169,18.13069 -52.7396,17.24202 -0.57831,-0.35742 -1.01721,-61.31686 -1.01721,-141.28133 V 392.74924 h 40.3707 40.3707 v -47.86812 -47.86811 h -41.49714 -41.49714 l 0.61206,-12.9763 c 1.29349,-27.42339 3.73148,-40.13118 9.94685,-51.84677 4.52841,-8.53579 16.24769,-19.7435 24.79182,-23.70965 6.1519,-2.85567 8.10233,-3.14162 23.99786,-3.51829 11.84898,-0.28077 21.0888,0.16401 29.31824,1.41131 6.60907,1.00173 12.18359,1.65424 12.38778,1.45004 0.69494,-0.69494 6.22483,-96.83731 5.60549,-97.45665 -0.33899,-0.33899 -5.93225,-1.8857 -12.42945,-3.43712 -10.7874,-2.57585 -14.82931,-2.86932 -46.55169,-3.37996 -29.88175,-0.48101 -36.17108,-0.27853 -44.98449,1.44821 -20.71947,4.05939 -46.06117,14.23033 -61.38652,24.63757 -9.77578,6.63861 -26.70326,23.02906 -34.58182,33.4847 -15.48613,20.55164 -27.91591,52.21358 -31.95008,81.38529 -1.00397,7.25992 -2.1886,21.91433 -2.63249,32.56537 l -0.80709,19.36552 -26.81768,0.30962 -26.81768,0.30962 v 47.84686 47.84686 h 27.10604 27.10604 l -0.0127,139.27892 c -0.007,76.6034 -0.33442,141.22536 -0.72765,143.60434 -0.70724,4.27885 -1.10188,4.5297 -5.60362,3.56188 z"
     id="path8062"
     transform="scale(0.75)" />
  <path
     style="fill:#308b42;fill-opacity:1;stroke:#308b42;stroke-width:0;stroke-miterlimit:0"
     d="M 272.21386,677.01483 C 230.18573,667.36087 195.39443,653.26995 161.40897,632.13745 86.15011,585.34071 31.963103,510.94917 10.562822,425.0458 4.0815631,399.02923 2.1234895,384.87102 1.4700975,359.29923 0.0581082,304.03821 6.3979602,264.68698 23.862774,220.30868 60.775922,126.51194 135.0502,54.872716 229.42283,22.04136 273.94555,6.5523227 314.72025,0.95530334 361.53028,3.9073765 414.45141,7.2448471 450.95257,17.346807 498.80001,41.897761 580.86915,84.00818 642.92721,159.88153 668.94348,249.91836 c 9.10948,31.526 12.05178,53.90164 12.10797,92.07914 0.0483,32.79992 -1.25812,46.56961 -7.05427,74.35243 -13.13585,62.96441 -46.84539,123.6812 -94.54311,170.28871 -31.58943,30.86743 -70.85025,56.54951 -110.57722,72.33305 -15.28545,6.07291 -47.89878,16.48965 -49.16897,15.70463 -0.56354,-0.34829 -1.00605,-62.48788 -1.00605,-141.27443 V 392.74924 h 40.3707 40.3707 v -47.86812 -47.86811 h -41.49714 -41.49714 l 0.61206,-12.9763 c 1.29349,-27.42339 3.73148,-40.13118 9.94685,-51.84677 4.52841,-8.53579 16.24769,-19.7435 24.79182,-23.70965 6.1519,-2.85567 8.10233,-3.14162 23.99786,-3.51829 11.84898,-0.28077 21.0888,0.16401 29.31824,1.41131 6.60907,1.00173 12.1784,1.65942 12.37627,1.46155 0.19787,-0.19788 1.66322,-22.09943 3.25631,-48.67012 2.00016,-33.36 2.52158,-48.5421 1.68489,-49.0592 -0.6664,-0.41186 -6.76059,-1.99019 -13.54264,-3.50739 -11.61061,-2.5974 -14.52104,-2.75941 -49.81808,-2.77317 -35.57175,-0.0139 -37.98801,0.12134 -47.29139,2.64622 -34.89976,9.47157 -57.75478,22.63334 -79.01026,45.50051 -10.71643,11.529 -16.25434,19.70801 -23.62147,34.88696 -14.20677,29.27104 -19.7102,55.59666 -21.09896,100.92675 l -0.26503,8.65086 -26.81768,0.30962 -26.81768,0.30962 v 47.84686 47.84686 h 27.10604 27.10604 v 139.99982 c 0,76.9999 -0.3244,141.62186 -0.7209,143.60435 -0.3965,1.98249 -1.30484,3.56827 -2.01854,3.52396 -0.71369,-0.0443 -6.74767,-1.33245 -13.40884,-2.86254 z"
     id="path8064"
     transform="scale(0.75)" />
</svg>
