<?xml version="1.0" standalone="no"?>
<!DOCTYPE svg PUBLIC "-//W3C//DTD SVG 20010904//EN"
 "http://www.w3.org/TR/2001/REC-SVG-20010904/DTD/svg10.dtd">
<svg version="1.0" xmlns="http://www.w3.org/2000/svg"
 width="512.000000pt" height="512.000000pt" viewBox="0 0 512.000000 512.000000"
 preserveAspectRatio="xMidYMid meet">

<g transform="translate(0.000000,512.000000) scale(0.100000,-0.100000)"
fill="#000000" stroke="none">
<path d="M2361 5110 c-773 -65 -1475 -473 -1911 -1112 -583 -852 -596 -1970
-33 -2833 180 -275 420 -523 684 -708 314 -218 648 -354 1049 -428 89 -16 171
-22 360 -26 275 -6 422 9 655 66 377 93 751 283 1049 535 404 342 702 817 831
1328 90 355 101 760 29 1123 -73 371 -237 733 -476 1053 -101 135 -357 389
-498 494 -357 265 -739 424 -1169 488 -156 23 -422 32 -570 20z m610 -314
c480 -91 889 -311 1224 -657 172 -178 286 -336 394 -548 173 -339 251 -664
251 -1043 0 -1246 -1025 -2268 -2275 -2268 -436 0 -841 117 -1210 350 -154 97
-251 174 -396 319 -377 376 -602 843 -660 1371 -15 139 -6 475 16 600 90 505
309 918 672 1270 322 313 697 511 1133 599 170 34 243 40 485 36 198 -2 249
-6 366 -29z"/>
<path d="M2495 4120 c-11 -5 -370 -359 -797 -787 -537 -538 -779 -787 -784
-806 -25 -105 43 -197 146 -197 23 0 51 5 63 11 12 6 340 329 730 718 l707
706 708 -706 c389 -389 717 -712 729 -718 30 -15 97 -14 138 3 38 16 72 63 81
113 13 71 -3 92 -317 408 l-299 301 0 240 c0 231 -1 243 -23 284 -57 108 -215
108 -269 0 -13 -26 -18 -59 -18 -125 l0 -90 -312 311 c-172 171 -324 319 -338
328 -26 17 -110 21 -145 6z"/>
<path d="M1887 2892 l-667 -667 0 -571 0 -571 23 -34 c48 -72 7 -69 835 -69
l742 0 0 620 0 620 310 0 310 0 0 -620 0 -620 179 0 c168 0 180 1 211 22 18
13 43 36 54 51 21 28 21 38 24 595 l2 566 -672 673 c-370 370 -675 673 -678
673 -3 0 -305 -300 -673 -668z m413 -982 l0 -310 -310 0 -310 0 0 310 0 310
310 0 310 0 0 -310z"/>
</g>
</svg>
