<?xml version="1.0" encoding="UTF-8" standalone="no"?>
<svg
   version="1.0"
   width="800.000000pt"
   height="201.000000pt"
   viewBox="0 0 800.000000 201.000000"
   preserveAspectRatio="xMidYMid meet"
   id="svg6"
   sodipodi:docname="rope.svg"
   inkscape:version="1.2.1 (9c6d41e410, 2022-07-14)"
   xmlns:inkscape="http://www.inkscape.org/namespaces/inkscape"
   xmlns:sodipodi="http://sodipodi.sourceforge.net/DTD/sodipodi-0.dtd"
   xmlns="http://www.w3.org/2000/svg"
   xmlns:svg="http://www.w3.org/2000/svg">
  <defs
     id="defs10" />
  <sodipodi:namedview
     id="namedview8"
     pagecolor="#ffffff"
     bordercolor="#000000"
     borderopacity="0.25"
     inkscape:showpageshadow="2"
     inkscape:pageopacity="0.0"
     inkscape:pagecheckerboard="0"
     inkscape:deskcolor="#d1d1d1"
     inkscape:document-units="pt"
     showgrid="false"
     inkscape:zoom="1.220625"
     inkscape:cx="533.74296"
     inkscape:cy="134.3574"
     inkscape:window-width="1920"
     inkscape:window-height="1017"
     inkscape:window-x="-8"
     inkscape:window-y="-8"
     inkscape:window-maximized="1"
     inkscape:current-layer="svg6" />
  <g
     transform="translate(0.000000,201.000000) scale(0.100000,-0.100000)"
     fill="#000000"
     stroke="none"
     id="g4">
    <path
       d="M320 1986 c-98 -14 -134 -23 -252 -57 l-68 -20 0 -182 c0 -181 0 -182 24 -197 97 -60 295 -275 585 -634 191 -236 351 -407 458 -489 135 -103 280 -180 416 -221 31 -10 55 -21 52 -26 -7 -11 -144 -46 -240 -61 -114 -18 -359 -16 -480 5 -275 47 -544 163 -792 342 l-23 16 0 -181 0 -181 68 26 c37 13 97 39 134 56 65 30 67 30 100 13 18 -9 83 -37 145 -61 449 -175 899 -160 1345 43 76 35 77 35 110 18 18 -9 83 -37 145 -61 449 -175 899 -160 1345 43 76 35 77 35 110 18 123 -63 354 -136 528 -166 122 -22 383 -17 525 10 133 24 310 80 432 136 79 36 81 36 113 20 118 -61 357 -136 530 -166 122 -22 383 -17 525 10 129 24 314 82 436 138 75 34 77 34 109 18 67 -35 264 -106 357 -129 168 -42 241 -51 413 -50 175 0 323 21 463 64 l67 21 0 182 -1 182 -45 35 c-51 40 -280 271 -341 345 -23 28 -101 124 -174 215 -193 241 -276 335 -382 436 -165 158 -339 268 -512 324 -89 29 -96 36 -49 49 162 46 239 56 439 55 169 0 216 -3 305 -23 230 -49 494 -162 670 -287 l90 -63 0 179 0 179 -27 -8 c-16 -5 -71 -28 -123 -51 -52 -24 -104 -43 -115 -42 -11 0 -81 25 -155 55 -248 102 -462 143 -700 134 -80 -3 -182 -13 -227 -22 -151 -29 -349 -94 -484 -160 -35 -17 -36 -17 -100 13 -490 227 -969 228 -1470 0 l-66 -30 -64 30 c-392 182 -791 219 -1176 108 -120 -35 -243 -80 -315 -117 l-39 -20 -97 42 c-384 165 -741 200 -1099 108 -121 -31 -278 -86 -356 -126 l-48 -24 -132 55 c-147 61 -270 99 -397 122 -117 22 -371 27 -490 10z m435 -71 c324 -49 634 -190 900 -409 125 -104 289 -280 461 -496 330 -416 480 -568 681 -692 94 -59 193 -104 286 -132 31 -10 55 -21 52 -26 -3 -4 -40 -17 -82 -28 -223 -59 -475 -64 -708 -16 -184 38 -408 129 -580 234 -231 142 -401 309 -745 735 -181 225 -259 313 -360 411 -170 164 -317 256 -510 321 -41 14 -79 29 -84 33 -5 5 10 13 33 19 22 6 59 16 81 21 151 40 405 50 575 25z m1600 0 c323 -49 631 -189 900 -409 110 -91 290 -283 442 -472 231 -289 309 -380 408 -479 193 -193 372 -307 578 -369 31 -10 55 -21 52 -26 -7 -11 -145 -46 -230 -59 -337 -50 -648 2 -980 164 -218 106 -378 226 -576 431 -88 91 -132 144 -326 384 -274 341 -409 478 -585 598 -68 47 -198 110 -286 139 -42 14 -81 29 -86 33 -4 5 9 13 30 19 44 12 213 48 259 54 76 10 309 6 400 -8z m1688 -15 c126 -27 228 -59 347 -110 331 -142 583 -352 910 -760 293 -365 380 -463 508 -573 150 -129 306 -219 460 -266 39 -13 70 -26 67 -31 -7 -11 -145 -46 -230 -59 -256 -38 -500 -16 -755 69 -140 46 -361 159 -485 246 -71 50 -161 129 -260 228 -163 163 -168 169 -366 416 -392 490 -589 658 -887 757 -42 14 -81 29 -86 33 -5 5 10 13 33 19 22 6 59 16 81 21 172 45 480 50 663 10z m1512 15 c340 -51 655 -200 938 -443 85 -73 284 -286 360 -385 313 -408 544 -648 747 -775 63 -39 193 -99 268 -121 39 -13 70 -26 67 -31 -7 -11 -145 -46 -230 -59 -336 -50 -650 3 -980 164 -221 107 -355 207 -550 407 -133 136 -145 151 -336 388 -189 236 -274 334 -382 436 -165 158 -339 268 -512 324 -38 12 -74 26 -78 30 -14 13 157 55 298 73 77 10 300 5 390 -8z"
       id="path2" />
  </g>
  <path
     style="fill:#308b42;stroke:#8b3030;stroke-width:0;stroke-miterlimit:0"
     d="m 126.16487,265.33324 c -28.395883,-3.03305 -49.577506,-8.52501 -76.663469,-19.87729 -6.568394,-2.75295 -12.899258,-5.00536 -14.068588,-5.00536 -1.169331,0 -6.670767,1.97096 -12.225415,4.37992 -12.627167,5.47619 -21.9575454,9.02217 -22.44829262,8.53143 -0.20670755,-0.20671 -0.27773657,-10.59003 -0.15784242,-23.07405 l 0.21798947,-22.69823 6.96364567,4.83906 c 31.5820709,21.94648 68.3499549,37.03653 103.6354319,42.53343 12.95205,2.01772 51.44071,1.99353 63.08244,-0.0397 9.7202,-1.69758 26.85106,-5.90391 29.23026,-7.17721 2.61338,-1.39864 0.64094,-2.709 -9.15858,-6.0844 C 174.56995,234.7711 150.3319,220.5289 134.3574,206.2787 120.54193,193.95451 104.83874,176.56475 78.658927,144.59805 42.669312,100.65317 17.545806,73.256777 5.8689361,65.222879 3.7149958,63.740929 1.6054938,61.615253 1.1811537,60.499154 0.7568136,59.383055 0.40962622,48.399209 0.40962622,36.090608 V 13.711335 L 12.4936,10.328765 C 36.779031,3.5307384 53.421129,1.5152892 77.828981,2.4162919 109.52891,3.5864774 127.87679,7.8828833 163.67347,22.51794 l 14.56953,5.956582 10.02445,-4.531082 c 17.46928,-7.89616 42.93094,-15.7708638 61.29565,-18.957333 19.60214,-3.4011755 45.75022,-3.7632474 64.62021,-0.8947946 20.35071,3.0935403 42.59152,9.6909326 66.25379,19.6531616 5.9044,2.485854 11.11778,4.519735 11.58531,4.519735 0.46752,0 3.41374,-1.291062 6.54717,-2.869028 15.3877,-7.749122 43.1767,-16.6829623 62.25991,-20.0158382 45.30984,-7.9133454 87.40746,-1.9030696 134.30528,19.1747592 4.8896,2.19759 9.27382,3.676201 10.24066,3.453739 0.92984,-0.213951 6.48325,-2.500425 12.3409,-5.081053 19.9075,-8.770378 42.44591,-15.4147975 64.48622,-19.0108127 11.88551,-1.9391964 46.75086,-1.9391964 58.63637,0 21.33433,3.4808286 42.6336,9.6758067 61.20921,17.8029397 16.71382,7.312567 15.08572,7.052944 22.81209,3.637701 19.84958,-8.773988 43.81689,-16.5734786 61.20684,-19.9180406 12.72602,-2.4475616 31.16329,-3.687562 46.64888,-3.1373727 27.85868,0.9897945 45.25051,5.1824232 85.53516,20.6198693 8.9725,3.438356 12.8485,4.550765 14.621,4.196258 1.3266,-0.265311 8.9716,-3.24944 16.9889,-6.631398 8.0174,-3.381958 14.9863,-6.149014 15.4865,-6.149014 0.6448,0 0.9095,6.661984 0.9095,22.890578 v 22.890579 l -12.5894,-8.445003 c -26.2119,-17.582909 -58.05838,-31.036106 -89.61107,-37.855177 -8.52907,-1.843277 -12.15107,-2.130399 -31.74726,-2.516665 -30.09565,-0.593224 -43.21205,0.678758 -62.468,6.057913 -10.89794,3.044338 -10.50429,3.90477 4.08971,8.939304 24.58642,8.481661 48.11985,24.142868 71.89292,47.843898 11.97428,11.937925 20.17934,21.47549 48.24996,56.085655 27.62034,34.05497 54.61664,62.8463 69.11094,73.70655 l 3.0722,2.30191 v 23.99092 23.99091 l -5.9395,1.81085 c -18.65,5.68599 -31.6209,7.88352 -53.1476,9.00428 -14.89865,0.77568 -34.4855,0.0477 -44.95792,-1.67089 -17.03185,-2.79506 -42.99002,-10.69406 -62.16102,-18.91544 -5.12557,-2.19807 -10.23501,-3.9965 -11.35427,-3.9965 -1.11926,0 -5.77352,1.61826 -10.34281,3.59612 -19.88252,8.60637 -42.36109,15.57421 -59.51107,18.44707 -20.82858,3.48907 -49.04069,3.99716 -67.1787,1.20986 -17.22676,-2.64728 -48.37199,-11.86809 -64.72095,-19.1612 -11.28803,-5.03547 -11.33869,-5.03468 -23.88373,0.37555 -12.65627,5.4582 -31.18441,11.74088 -43.29497,14.68081 -28.37444,6.88813 -64.68627,7.89591 -90.24116,2.50451 -19.36446,-4.08538 -43.54444,-11.81897 -58.36949,-18.66857 -3.55234,-1.64128 -7.53413,-2.98415 -8.84841,-2.98415 -1.31428,0 -7.06882,2.07625 -12.78785,4.61387 -19.57059,8.6838 -43.17962,15.57819 -64.05928,18.7068 -18.79362,2.81604 -45.15506,2.47226 -64.65279,-0.84313 -18.89423,-3.21277 -40.96464,-9.95869 -59.13469,-18.07479 -12.00989,-5.36451 -12.63208,-5.37415 -24.09383,-0.37298 -32.79474,14.3095 -59.43602,20.41444 -91.3404,20.93098 -9.23707,0.14956 -18.26933,0.1144 -20.07169,-0.0781 z m 455.91398,-8.53147 c 6.53354,-0.46031 15.35575,-1.38965 19.60491,-2.0652 8.58177,-1.3644 26.50207,-5.71983 28.97131,-7.04132 2.52624,-1.35201 0.48606,-2.60251 -10.48098,-6.42416 C 594.19631,232.21867 574.3891,219.35037 550.22277,195.82525 537.73449,183.66833 525.2841,169.44615 503.94448,142.96119 468.21836,98.620928 447.05134,76.286235 425.0178,59.680562 393.73056,36.100802 356.30003,19.593194 319.50845,13.14883 308.90906,11.292256 283.64979,9.9805395 270.76293,10.617471 c -7.99139,0.394973 -15.4197,1.447837 -26.77397,3.794855 -17.58241,3.634421 -21.97155,4.927796 -21.97155,6.47449 0,0.613732 4.82796,2.852509 11.46953,5.318543 28.92201,10.73882 48.19902,23.335665 70.98612,46.386934 11.64586,11.780876 23.91221,25.99992 48.74047,56.499537 26.33191,32.34674 32.51608,39.36512 48.32631,54.84524 23.4542,22.96449 39.98073,34.94939 66.55356,48.26406 25.2769,12.66534 52.73939,21.08295 77.52872,23.76358 7.42118,0.8025 11.24664,1.07676 21.30056,1.52717 1.80236,0.0807 8.62263,-0.22981 15.15617,-0.69011 z m 226.5233,-1.28279 c 16.36539,-1.99676 36.45673,-7.08015 36.45673,-9.22407 0,-0.4363 -1.56682,-1.36388 -3.48182,-2.06126 -1.915,-0.69739 -7.16846,-2.61777 -11.67435,-4.26753 C 807.30683,231.69303 785.33953,217.28958 764.46652,197.0611 753.10481,186.05023 741.01256,172.16609 717.00735,142.56918 692.06632,111.81848 682.41827,100.74051 668.10508,86.419228 643.64908,61.949401 623.28311,47.056844 596.41577,33.99663 581.82081,26.902021 565.47336,20.807599 551.28114,17.170184 530.7097,11.897799 527.06543,11.50887 498.10548,11.495089 c -28.40072,-0.01352 -36.28465,0.820536 -54.03248,5.716164 -10.56506,2.914306 -11.02783,3.759814 -3.5941,6.566669 31.08543,11.73734 40.89307,17.068879 59.03056,32.089632 19.19409,15.895794 34.42464,32.949241 82.12872,91.958406 10.15185,12.55767 43.56444,46.49635 55.33059,56.20177 12.19277,10.05733 25.92721,18.58963 45.46851,28.24656 20.84689,10.30213 29.55823,13.66513 46.644,18.00687 27.60293,7.01428 51.86395,8.61229 79.52087,5.23782 z m 210.13825,0.39578 c 15.2993,-1.53844 39.3241,-7.26097 39.3241,-9.36672 0,-0.57043 -2.6728,-2.04783 -5.9396,-3.28311 -17.1469,-6.48387 -21.4654,-8.31267 -30.1075,-12.75023 -24.76132,-12.71438 -55.60192,-41.97224 -90.99796,-86.32796 -4.3141,-5.40614 -12.10462,-15.17496 -17.31212,-21.7085 C 894.55713,98.451801 870.12858,73.781624 852.02253,60.183298 818.77333,35.211931 784.2287,19.894865 745.76126,13.067088 734.1554,11.007105 706.24444,9.8760315 693.53843,10.950792 c -15.00967,1.26962 -40.15931,6.429554 -44.27403,9.083671 -1.90795,1.230683 -0.38838,2.13713 9.00493,5.371586 25.85298,8.902118 48.01754,23.266441 71.98633,46.652629 12.94123,12.626668 23.03569,24.192292 47.22383,54.106192 9.83725,12.1659 20.65863,25.43779 24.04751,29.49309 8.44754,10.10873 40.74593,42.27849 49.26665,49.0704 11.39801,9.08544 25.1853,17.82075 39.85417,25.25062 45.24871,22.91876 82.6951,30.50077 128.09258,25.93578 z m -636.80592,-0.33844 c 16.81781,-2.1906 35.31356,-6.85962 36.06144,-9.10326 0.17243,-0.51727 -1.45589,-1.58097 -3.61847,-2.36378 C 393.12097,236.41485 383.3931,231.72556 368.66359,222.07306 344.25718,206.07912 327.9993,189.40472 285.93476,137.22478 256.40369,100.59227 231.03873,73.98603 212.46154,60.156032 173.21929,30.941682 129.84533,13.994926 86.516186,10.947574 71.617803,9.8997677 48.980042,10.885305 35.852379,13.153231 26.760526,14.723932 10.136126,19.02926 9.0783001,20.087087 c -1.3386274,1.338627 0.2791365,2.236106 11.0299569,6.119038 28.988561,10.469954 48.627886,23.592927 73.732276,49.267819 13.464307,13.770287 18.299097,19.358597 44.210257,51.100556 42.07963,51.54882 62.60884,72.23963 89.29262,89.99549 30.35237,20.19701 67.41678,34.5254 100.76719,38.95467 12.09144,1.60587 41.67384,1.63425 53.82388,0.0517 z"
     id="path1588"
     transform="scale(0.75)" />
</svg>
