<?xml version="1.0" encoding="UTF-8" standalone="no"?>
<svg
   version="1.0"
   width="512.000000pt"
   height="512.000000pt"
   viewBox="0 0 512.000000 512.000000"
   preserveAspectRatio="xMidYMid meet"
   id="svg6"
   sodipodi:docname="social.svg"
   inkscape:version="1.2.1 (9c6d41e410, 2022-07-14)"
   xmlns:inkscape="http://www.inkscape.org/namespaces/inkscape"
   xmlns:sodipodi="http://sodipodi.sourceforge.net/DTD/sodipodi-0.dtd"
   xmlns="http://www.w3.org/2000/svg"
   xmlns:svg="http://www.w3.org/2000/svg">
  <defs
     id="defs10" />
  <sodipodi:namedview
     id="namedview8"
     pagecolor="#ffffff"
     bordercolor="#000000"
     borderopacity="0.25"
     inkscape:showpageshadow="2"
     inkscape:pageopacity="0.0"
     inkscape:pagecheckerboard="0"
     inkscape:deskcolor="#d1d1d1"
     inkscape:document-units="pt"
     showgrid="false"
     inkscape:zoom="1.2260742"
     inkscape:cx="342.14894"
     inkscape:cy="341.74114"
     inkscape:window-width="1920"
     inkscape:window-height="1017"
     inkscape:window-x="-8"
     inkscape:window-y="-8"
     inkscape:window-maximized="1"
     inkscape:current-layer="svg6" />
  <g
     transform="translate(0.000000,512.000000) scale(0.100000,-0.100000)"
     fill="#000000"
     stroke="none"
     id="g4">
    <path
       d="M3670 5055 c-182 -41 -357 -179 -439 -345 -58 -119 -75 -206 -67 -352 l6 -116 -47 -41 c-48 -40 -1696 -1300 -1721 -1315 -8 -5 -31 9 -63 38 -71 64 -209 131 -300 146 -206 35 -453 -46 -584 -191 -112 -125 -164 -255 -172 -434 -7 -144 7 -208 69 -335 78 -160 240 -289 423 -335 125 -32 314 -12 426 45 21 11 47 20 57 20 11 0 255 -112 543 -248 791 -376 1464 -695 1466 -697 2 -1 -2 -17 -7 -35 -38 -133 -32 -301 16 -429 111 -297 431 -472 737 -405 187 41 355 170 435 334 56 113 72 183 72 306 0 358 -221 612 -578 664 -151 22 -318 -27 -457 -135 -36 -28 -69 -45 -85 -45 -15 0 -114 42 -221 93 -107 52 -534 255 -949 452 -415 197 -756 360 -758 361 -2 1 8 24 21 51 65 127 86 272 63 444 l-8 66 887 678 887 677 26 -30 c65 -73 194 -149 303 -177 86 -23 257 -16 349 14 192 61 353 223 421 421 30 89 37 258 15 355 -42 178 -162 343 -314 432 -125 74 -306 101 -452 68z"
       id="path2" />
  </g>
  <path
     style="fill:#308b42;stroke:#8b3030;stroke-width:0;stroke-miterlimit:0"
     d="m 503.0969,679.47455 c -8.54089,-1.62951 -15.98505,-4.25045 -24.74087,-8.71076 -22.68681,-11.55693 -39.24687,-33.03903 -44.59117,-57.8447 -2.32272,-10.78094 -2.09731,-30.43819 0.47456,-41.3851 1.08099,-4.6011 1.81504,-8.47312 1.63122,-8.60448 -0.18381,-0.13135 -6.39011,-3.11178 -13.79179,-6.62317 -7.40167,-3.51139 -50.89414,-24.17853 -96.64994,-45.92698 -109.71924,-52.15128 -150.7409,-71.29238 -156.7876,-73.15859 -1.25175,-0.38633 -4.20171,0.45479 -9.43152,2.68921 -13.72515,5.86403 -25.2732,7.87547 -41.62762,7.25072 -8.66513,-0.33102 -12.07491,-0.83817 -17.669784,-2.62808 -14.728522,-4.71195 -27.80556,-12.7951 -38.091612,-23.54512 -7.607706,-7.95086 -11.43242,-13.56438 -16.214836,-23.79848 -5.054523,-10.81637 -6.876871,-17.92119 -7.423093,-28.94051 -0.909694,-18.3519 2.045689,-34.10708 9.103127,-48.52888 11.419421,-23.33546 29.981092,-37.78553 57.350928,-44.64711 9.86568,-2.47331 30.58408,-2.61891 38.50288,-0.27057 12.48155,3.70143 24.84368,10.1822 35.07129,18.38592 3.3644,2.69863 6.83886,4.90918 7.72103,4.91233 1.71742,0.007 12.01185,-7.68979 92.59916,-69.22548 81.34193,-62.11191 135.41637,-103.6464 140.10955,-107.61792 l 4.31027,-3.64748 -0.53476,-15.57727 c -0.65662,-19.127037 0.44855,-26.831056 5.7103,-39.805577 11.95943,-29.489803 39.71551,-50.991842 70.35306,-54.5010077 14.188,-1.6250657 31.13331,1.1447257 44.73542,7.3122197 20.67979,9.376666 38.97656,31.376566 46.64377,56.084129 2.1285,6.859107 2.22516,7.917172 2.18301,23.896904 -0.038,14.401852 -0.28299,17.590592 -1.76709,22.998992 -7.82302,28.50879 -32.35087,53.50763 -59.80525,60.95366 -8.10077,2.19705 -23.21894,3.5979 -31.72322,2.93948 -17.53117,-1.35731 -36.69662,-10.34227 -50.06437,-23.47069 -3.08745,-3.03217 -5.77974,-5.51304 -5.98286,-5.51304 -0.20312,0 -26.67201,20.06973 -58.81974,44.59941 -131.39249,100.25635 -175.94677,134.30464 -176.86394,135.15906 -0.7426,0.69181 -0.65846,3.87399 0.36449,13.7849 1.11573,10.80982 1.17535,14.43186 0.37013,22.48552 -1.11768,11.1787 -3.87821,21.38374 -8.38728,31.00585 -1.76452,3.7654 -3.20823,7.36371 -3.20823,7.99624 0,0.65928 3.56756,2.82701 8.36002,5.07973 4.598,2.16133 50.20087,23.85239 101.3397,48.20236 51.13883,24.34997 101.05424,48.112 110.92314,52.80451 19.14709,9.10414 34.55249,15.69485 36.68587,15.69485 2.0167,0 6.96203,-2.75748 13.99437,-7.80315 23.61812,-16.94587 48.99834,-20.85014 76.3288,-11.74175 31.81189,10.60192 52.35292,35.2032 57.2666,68.58625 3.07299,20.8776 0.67083,37.05834 -8.13148,54.77288 -11.00794,22.15338 -31.74116,38.6437 -56.2493,44.73831 -8.53215,2.12176 -25.51689,2.71993 -33.57534,1.18246 z"
     id="path862"
     transform="scale(0.75)" />
</svg>
