<?xml version="1.0" encoding="UTF-8" standalone="no"?>
<svg
   version="1.0"
   width="512.000000pt"
   height="512.000000pt"
   viewBox="0 0 512.000000 512.000000"
   preserveAspectRatio="xMidYMid meet"
   id="svg9795"
   sodipodi:docname="telegram.svg"
   inkscape:version="1.2.1 (9c6d41e410, 2022-07-14)"
   xmlns:inkscape="http://www.inkscape.org/namespaces/inkscape"
   xmlns:sodipodi="http://sodipodi.sourceforge.net/DTD/sodipodi-0.dtd"
   xmlns="http://www.w3.org/2000/svg"
   xmlns:svg="http://www.w3.org/2000/svg">
  <defs
     id="defs9799" />
  <sodipodi:namedview
     id="namedview9797"
     pagecolor="#ffffff"
     bordercolor="#000000"
     borderopacity="0.25"
     inkscape:showpageshadow="2"
     inkscape:pageopacity="0.0"
     inkscape:pagecheckerboard="0"
     inkscape:deskcolor="#d1d1d1"
     inkscape:document-units="pt"
     showgrid="false"
     inkscape:zoom="1.2260742"
     inkscape:cx="342.14894"
     inkscape:cy="341.74114"
     inkscape:window-width="1920"
     inkscape:window-height="1017"
     inkscape:window-x="-8"
     inkscape:window-y="-8"
     inkscape:window-maximized="1"
     inkscape:current-layer="svg9795" />
  <g
     transform="translate(0.000000,512.000000) scale(0.100000,-0.100000)"
     fill="#000000"
     stroke="none"
     id="g9793">
    <path
       d="M2220 5100 c-74 -11 -155 -24 -180 -31 -140 -35 -395 -117 -470 -151 -228 -103 -344 -169 -520 -294 -189 -135 -309 -248 -451 -424 -92 -114 -223 -308 -260 -385 -13 -27 -27 -52 -30 -55 -7 -6 -34 -64 -86 -185 -96 -223 -121 -308 -178 -590 -29 -142 -44 -393 -34 -560 6 -82 14 -172 20 -200 6 -27 17 -88 25 -135 17 -95 79 -329 99 -375 8 -16 34 -80 59 -141 117 -290 308 -582 521 -799 68 -69 83 -82 195 -176 95 -80 231 -173 350 -241 105 -60 260 -138 274 -138 3 0 30 -11 61 -25 94 -43 400 -134 505 -151 14 -2 50 -8 80 -14 89 -17 490 -24 630 -11 185 17 552 111 705 181 22 10 82 37 134 60 97 44 298 160 392 226 182 129 352 291 492 468 97 122 222 313 270 411 89 182 121 259 170 405 87 262 114 415 124 705 7 223 -6 404 -43 590 -27 135 -122 433 -167 520 -14 28 -37 74 -51 104 -54 110 -196 342 -280 454 -214 286 -558 563 -891 718 -152 70 -196 89 -208 89 -7 0 -17 4 -22 9 -6 5 -59 23 -120 41 -60 17 -121 35 -135 40 -45 16 -153 40 -255 56 -159 26 -555 28 -725 4z m1562 -1546 c43 -40 61 -130 37 -191 -6 -15 -35 -147 -65 -293 -30 -146 -61 -294 -69 -330 -8 -36 -42 -193 -75 -350 -33 -157 -67 -314 -75 -350 -8 -36 -40 -189 -70 -340 -31 -151 -59 -284 -64 -295 -5 -11 -14 -40 -21 -64 -17 -63 -58 -101 -109 -101 -61 0 -79 9 -196 97 -164 124 -512 381 -533 394 -19 12 -32 1 -164 -129 -161 -159 -211 -199 -258 -209 l-33 -6 6 79 c2 43 13 190 23 327 l18 248 435 397 c239 218 510 466 603 551 105 96 168 160 166 170 -6 31 -44 21 -133 -35 -128 -80 -234 -147 -355 -224 -58 -37 -204 -129 -325 -205 -121 -76 -260 -164 -310 -195 -49 -31 -168 -105 -263 -165 l-172 -108 -93 27 c-88 27 -346 106 -472 145 -33 11 -73 22 -90 26 -49 10 -78 38 -77 75 2 64 28 79 382 216 52 20 169 65 260 100 91 34 246 94 345 132 99 38 259 100 355 136 96 37 189 73 205 80 17 8 93 37 170 66 77 28 144 55 150 58 11 8 16 10 200 77 72 26 149 56 173 67 24 10 103 41 175 68 73 27 154 57 181 68 55 22 103 17 138 -14z"
       id="path9791" />
  </g>
  <path
     style="fill:#308b42;stroke:#8b3030;stroke-width:0;stroke-miterlimit:0"
     d="m 310.14743,679.72981 c -20.86246,-1.13853 -42.21355,-5.76975 -73.62015,-15.9688 C 186.3473,647.46545 136.40007,617.03851 100.29926,580.7734 58.292472,538.57541 26.782649,481.53999 11.500303,420.03982 8.1749643,406.65779 3.8790786,382.45928 2.7403334,370.69534 1.4479545,357.34428 1.4656339,326.88465 2.7741813,312.37913 5.1691829,285.83004 12.895078,250.67485 21.267261,228.22994 26.895886,213.14021 36.421373,191.66968 43.087101,179.04782 53.893728,158.58499 71.029538,133.66765 87.72858,114.13423 116.01313,81.048853 157.0674,51.224221 203.08722,30.32981 227.15624,19.401732 266.93374,7.4445491 291.98885,3.6058273 301.6161,2.1308245 308.24438,1.7920764 334.24046,1.446496 c 49.95401,-0.66406669 64.57479,1.2364355 106.18965,13.803211 8.97172,2.709265 17.59681,5.564442 19.16686,6.34484 1.57006,0.780398 3.91088,1.673269 5.20185,1.984157 3.02054,0.727404 23.16472,9.750105 34.5234,15.463247 38.0369,19.131638 79.38464,52.541102 105.40931,85.171959 17.23687,21.61234 41.93376,63.02847 51.75906,86.7988 7.33005,17.73354 17.28413,50.76249 20.41279,67.7323 7.37353,39.994 6.71272,95.33729 -1.57999,132.32309 -7.22523,32.22484 -23.32094,73.98737 -38.44995,99.76372 -28.33047,48.26853 -66.16596,88.50611 -107.27185,114.08231 -26.78967,16.6686 -54.31166,29.97982 -78.16073,37.80303 -25.43916,8.34482 -57.63087,15.5293 -76.64406,17.10527 -10.94792,0.90745 -47.27785,0.85541 -64.64937,-0.0926 z M 442.44835,516.07679 c 6.9348,-3.48975 10.26831,-13.15949 18.78821,-54.50047 3.22894,-15.66769 11.54034,-55.09603 18.46978,-87.61853 6.92945,-32.52251 15.90069,-74.9139 19.93608,-94.20311 4.03539,-19.28921 8.2838,-38.69649 9.44091,-43.1273 2.65893,-10.18164 2.36392,-16.4488 -1.09241,-23.20712 -3.03623,-5.93687 -6.85081,-8.26157 -13.58753,-8.2806 -4.01521,-0.0113 -7.92976,1.17314 -25.28395,7.65045 -11.29327,4.21512 -25.30455,9.57678 -31.13617,11.91479 -5.83162,2.33801 -18.4757,7.17163 -28.09796,10.74139 -9.62226,3.56975 -19.11924,7.23037 -21.10438,8.13471 -1.98515,0.90435 -9.71097,3.96971 -17.16847,6.81193 -7.4575,2.84221 -19.79852,7.61923 -27.42449,10.61558 -7.62596,2.99636 -36.80446,14.23614 -64.8411,24.97729 -136.9172,52.45453 -135.50046,51.85431 -138.94194,58.86457 -2.96904,6.04792 0.50827,12.55038 7.70354,14.40541 1.97738,0.50979 20.84541,6.20251 41.92897,12.6505 21.08355,6.44799 40.39931,12.31309 42.92391,13.03357 l 4.59018,1.30996 26.81086,-16.85222 c 58.68494,-36.88699 70.22638,-44.15522 118.1479,-74.40378 27.35747,-17.26832 51.58112,-32.25392 53.83034,-33.30131 4.97641,-2.31738 7.75973,-2.49014 7.75973,-0.48165 0,2.36273 -18.51681,19.9793 -78.70649,74.88 -31.40104,28.64178 -62.47514,56.99444 -69.05355,63.00594 l -11.96075,10.92998 -0.48497,4.59872 c -0.39801,3.77409 -2.95989,39.3155 -4.97595,69.03202 -0.24346,3.58869 -0.64818,8.26826 -0.89936,10.39904 -0.51392,4.35948 -0.081,4.59608 5.54896,3.03239 5.5263,-1.53491 12.3807,-7.07112 31.25772,-25.24644 10.31748,-9.93396 19.70435,-18.56454 20.85972,-19.17907 2.03403,-1.08188 2.70666,-0.67228 21.20589,12.91302 10.50788,7.71668 29.19204,21.5482 41.52036,30.7367 12.32832,9.1885 24.40011,17.71568 26.82621,18.9493 5.36077,2.72582 12.71974,3.07403 17.2102,0.81434 z"
     id="path10281"
     transform="scale(0.75)" />
</svg>
