<?xml version="1.0" standalone="no"?>
<!DOCTYPE svg PUBLIC "-//W3C//DTD SVG 20010904//EN"
 "http://www.w3.org/TR/2001/REC-SVG-20010904/DTD/svg10.dtd">
<svg version="1.0" xmlns="http://www.w3.org/2000/svg"
 width="512.000000pt" height="512.000000pt" viewBox="0 0 512.000000 512.000000"
 preserveAspectRatio="xMidYMid meet">

<g transform="translate(0.000000,512.000000) scale(0.100000,-0.100000)"
fill="#000000" stroke="none">
<path d="M2340 5105 c-787 -79 -1462 -481 -1899 -1130 -255 -379 -393 -787
-432 -1271 -11 -141 -10 -184 4 -337 36 -375 115 -654 273 -968 350 -691 1015
-1198 1769 -1347 227 -46 293 -52 511 -52 288 0 528 38 793 126 749 249 1339
821 1609 1559 106 290 152 554 152 869 0 218 -6 284 -52 511 -148 747 -655
1417 -1336 1764 -318 162 -585 239 -955 276 -173 17 -263 17 -437 0z m631
-309 c480 -91 889 -311 1224 -657 172 -178 286 -336 394 -548 173 -339 251
-664 251 -1043 0 -1246 -1025 -2268 -2275 -2268 -436 0 -841 117 -1210 350
-154 97 -251 174 -396 319 -377 376 -602 843 -660 1371 -15 139 -6 475 16 600
90 505 309 918 672 1270 322 313 697 511 1133 599 170 34 243 40 485 36 198
-2 249 -6 366 -29z"/>
<path d="M3510 4204 c-99 -19 -207 -67 -280 -125 -75 -59 -1866 -1862 -1884
-1897 -25 -46 -28 -156 -6 -225 l14 -47 -242 -243 c-133 -134 -242 -245 -242
-247 0 -18 160 -483 170 -495 7 -8 22 -15 33 -15 14 0 125 103 338 316 l317
317 48 -17 c66 -22 158 -20 214 5 35 15 198 173 721 697 775 776 707 721 892
722 128 0 175 10 282 60 221 103 358 319 358 565 0 177 -60 324 -182 446 -128
127 -243 178 -421 184 -58 2 -116 1 -130 -1z m251 -110 c351 -104 500 -520
293 -821 -33 -48 -108 -123 -123 -123 -4 0 -175 169 -381 376 l-375 375 60 56
c118 109 226 152 376 153 59 0 116 -6 150 -16z m66 -1006 c-36 -24 -126 -40
-252 -47 -117 -5 -148 -10 -190 -30 -40 -19 -189 -162 -735 -707 -751 -749
-714 -717 -812 -695 -49 11 -271 86 -298 101 -24 13 -120 300 -120 358 0 24 7
57 16 75 9 18 388 404 842 860 l827 827 367 -367 c247 -247 363 -370 355 -375z
m-2418 -1348 c31 -85 60 -115 136 -140 36 -12 65 -25 65 -28 0 -4 -48 -55
-107 -114 l-108 -108 -57 172 -58 172 52 53 c29 29 53 53 54 53 1 0 11 -27 23
-60z m-148 -308 l54 -162 -111 -111 -112 -111 -57 172 -57 172 108 109 c60 60
111 105 115 101 4 -4 31 -80 60 -170z"/>
<path d="M3858 3836 c-9 -22 -6 -32 21 -75 35 -55 59 -68 91 -51 29 16 25 60
-10 108 -24 33 -36 42 -60 42 -23 0 -33 -6 -42 -24z"/>
<path d="M3952 3598 c-6 -7 -15 -39 -21 -70 -5 -31 -20 -76 -31 -98 -34 -66
-14 -111 42 -97 52 13 114 205 82 255 -16 24 -55 30 -72 10z"/>
<path d="M3035 3591 c-16 -10 -357 -347 -757 -748 -546 -547 -728 -736 -728
-753 0 -35 315 -350 349 -350 21 0 176 150 759 733 403 402 739 743 746 757 8
15 10 33 6 45 -9 23 -322 335 -336 335 -5 0 -22 -9 -39 -19z m220 -381 c-28
-27 -48 -41 -54 -35 -7 8 -27 65 -89 255 -3 8 39 -28 92 -80 l96 -95 -45 -45z
m-186 37 l56 -167 -112 -111 -111 -112 -58 177 -59 176 105 105 c58 58 109
104 114 102 6 -2 35 -78 65 -170z m-304 -298 l57 -171 -108 -109 c-60 -60
-111 -105 -115 -101 -8 8 -109 312 -109 327 0 12 199 225 210 225 5 0 34 -77
65 -171z m-300 -301 l56 -172 -110 -110 c-61 -61 -112 -108 -114 -106 -2 3
-28 79 -58 170 l-55 165 106 111 c58 61 108 112 112 113 4 0 32 -76 63 -171z
m-352 -580 c-59 -60 -110 -108 -113 -108 -3 0 -31 76 -61 169 l-56 169 111
111 111 111 57 -172 58 -173 -107 -107z m-251 -28 c35 -106 52 -172 46 -176
-6 -4 -61 45 -124 107 l-114 114 62 62 c34 35 65 63 68 63 3 0 31 -76 62 -170z"/>
</g>
</svg>
