<?xml version="1.0" encoding="UTF-8" standalone="no"?>
<svg
   version="1.0"
   width="512.000000pt"
   height="512.000000pt"
   viewBox="0 0 512.000000 512.000000"
   preserveAspectRatio="xMidYMid meet"
   id="svg9297"
   sodipodi:docname="viber_14147.svg"
   inkscape:version="1.2.1 (9c6d41e410, 2022-07-14)"
   xmlns:inkscape="http://www.inkscape.org/namespaces/inkscape"
   xmlns:sodipodi="http://sodipodi.sourceforge.net/DTD/sodipodi-0.dtd"
   xmlns="http://www.w3.org/2000/svg"
   xmlns:svg="http://www.w3.org/2000/svg">
  <defs
     id="defs9301" />
  <sodipodi:namedview
     id="namedview9299"
     pagecolor="#ffffff"
     bordercolor="#000000"
     borderopacity="0.25"
     inkscape:showpageshadow="2"
     inkscape:pageopacity="0.0"
     inkscape:pagecheckerboard="0"
     inkscape:deskcolor="#d1d1d1"
     inkscape:document-units="pt"
     showgrid="false"
     inkscape:zoom="1.2260742"
     inkscape:cx="342.14894"
     inkscape:cy="341.74114"
     inkscape:window-width="1920"
     inkscape:window-height="1017"
     inkscape:window-x="-8"
     inkscape:window-y="-8"
     inkscape:window-maximized="1"
     inkscape:current-layer="svg9297" />
  <g
     transform="translate(0.000000,512.000000) scale(0.100000,-0.100000)"
     fill="#000000"
     stroke="none"
     id="g9295">
    <path
       d="M2400 5114 c-479 -41 -879 -176 -1247 -420 -622 -412 -1020 -1047 -1129 -1799 -21 -145 -24 -493 -6 -635 53 -402 195 -786 410 -1110 437 -657 1132 -1069 1922 -1140 720 -64 1454 199 1984 710 423 409 689 942 768 1540 18 142 15 490 -6 635 -81 564 -319 1051 -705 1449 -396 407 -921 672 -1491 751 -112 15 -411 27 -500 19z m348 -1330 c378 -84 676 -305 882 -654 33 -56 89 -181 101 -225 51 -192 60 -239 66 -355 5 -118 4 -126 -17 -152 -29 -38 -80 -39 -109 -2 -17 22 -21 41 -21 108 -1 327 -164 668 -421 881 -204 169 -421 259 -678 281 -70 6 -89 11 -108 30 -31 31 -29 60 7 96 30 29 31 30 108 23 42 -3 128 -17 190 -31z m-1123 -15 c64 -17 99 -52 186 -180 73 -108 190 -267 314 -429 82 -106 72 -140 -68 -249 -56 -43 -118 -95 -137 -115 -35 -37 -35 -38 -35 -124 1 -72 6 -99 30 -156 88 -212 353 -493 570 -603 79 -41 214 -83 264 -83 42 0 49 4 102 59 30 32 81 93 113 135 67 89 89 106 136 106 45 -1 45 -1 242 -152 92 -70 217 -162 280 -204 140 -95 156 -109 179 -159 28 -60 24 -119 -11 -194 -68 -144 -173 -254 -315 -334 -61 -33 -75 -37 -140 -37 -95 0 -131 16 -400 173 -480 280 -733 464 -981 711 -258 259 -445 520 -721 1006 -97 171 -143 289 -143 363 0 89 114 265 232 358 57 45 132 85 193 105 51 16 61 16 110 3z m1150 -304 c266 -52 506 -246 627 -509 29 -61 66 -214 74 -299 8 -96 -4 -132 -52 -147 -63 -21 -94 14 -94 107 0 129 -72 324 -162 441 -114 147 -296 248 -493 274 -44 6 -90 15 -103 21 -44 21 -40 100 6 123 26 13 95 9 197 -11z m122 -359 c127 -61 211 -170 242 -314 18 -84 14 -120 -14 -147 -51 -52 -125 -13 -125 65 0 65 -35 149 -82 198 -54 55 -100 79 -178 91 -35 6 -71 18 -81 27 -26 23 -24 75 3 103 19 22 27 23 91 18 50 -4 90 -16 144 -41z"
       id="path9293" />
  </g>
  <path
     style="fill:#308b42;stroke:#8b3030;stroke-width:0;stroke-miterlimit:0"
     d="M 318.53077,681.41434 C 222.52126,673.90831 135.22803,628.12622 76.019469,554.22609 41.156924,510.71301 18.201485,461.09479 6.9586649,404.95102 2.0614765,380.49571 1.6265438,375.39787 1.6701616,342.96456 1.7212978,304.94072 3.1341926,292.16708 10.688041,261.43611 33.110231,170.21695 88.853585,95.268213 169.85314,47.433513 210.58924,23.376596 256.93998,8.2819984 307.89327,2.4793243 320.57904,1.03464 348.54047,0.83528859 367.02509,2.0577432 446.21921,7.2951367 524.58549,43.27539 581.90784,100.7167 c 52.12152,52.22969 85.70678,119.28113 96.62297,192.90337 2.74662,18.52405 3.74166,55.8655 2.07558,77.89088 -3.16507,41.84185 -18.5492,92.42202 -40.06309,131.72002 -17.18016,31.38186 -35.82047,55.93383 -61.75884,81.34529 -26.97629,26.42831 -56.7207,47.37204 -90.18918,63.50431 -34.97225,16.85712 -72.48924,27.71654 -110.96724,32.11984 -13.67731,1.56519 -46.08853,2.23096 -59.09727,1.21393 z M 458.00805,540.88767 c 5.77015,-2.37391 16.74302,-9.53042 23.76279,-15.49811 10.35558,-8.80353 21.61671,-24.83482 25.70691,-36.5962 3.79254,-10.90542 1.7222,-22.02872 -5.42251,-29.13351 -1.61364,-1.60463 -9.53298,-7.50018 -17.59852,-13.10121 -8.06553,-5.60102 -25.0808,-18.00502 -37.8117,-27.56442 -12.7309,-9.5594 -24.6304,-18.13745 -26.4433,-19.06233 -4.07176,-2.07726 -11.17681,-1.81483 -14.75927,0.54513 -1.29977,0.85623 -6.56746,6.8465 -11.706,13.31172 -12.77576,16.07426 -20.14618,23.47574 -24.11949,24.22114 -6.43342,1.20692 -24.86859,-4.27438 -39.01657,-11.60071 -26.70416,-13.82837 -59.56132,-47.76645 -72.61992,-75.00893 -4.52903,-9.44832 -6.32986,-16.7267 -6.35022,-25.66547 -0.0275,-12.08293 0.3297,-12.57703 21.59954,-29.87669 16.99427,-13.82214 19.29599,-17.37575 16.3133,-25.18582 -0.7794,-2.04082 -8.62249,-13.33231 -17.42911,-25.0922 -8.80662,-11.75989 -20.96687,-28.50213 -27.02278,-37.20497 -13.32916,-19.1551 -18.83429,-25.08888 -25.69176,-27.69216 -8.91389,-3.38396 -15.1921,-2.45564 -28.54639,4.22097 -17.08499,8.54182 -32.2204,23.98009 -41.0646,41.88629 -5.74746,11.63646 -6.08191,16.50933 -2.02636,29.52323 6.69161,21.47281 45.26615,86.76369 72.63769,122.94584 13.31906,17.60632 24.19461,30.09517 39.77696,45.6775 31.87036,31.87037 62.88961,54.6838 122.34496,89.97985 42.48261,25.22007 48.20121,27.76889 62.39427,27.8095 7.09084,0.0203 9.3428,-0.29595 13.09208,-1.83844 z m 45.63193,-177.20087 2.85464,-2.8221 -0.10834,-14.04764 c -0.12278,-15.91714 -1.15994,-23.1104 -6.08266,-42.18624 -12.06394,-46.74847 -47.58253,-90.14666 -91.68235,-112.02157 -17.24949,-8.55629 -37.23753,-14.68316 -57.74457,-17.70027 -15.12154,-2.22476 -19.69699,-2.1279 -23.12873,0.48961 -5.10236,3.89176 -6.51909,9.23516 -3.553,13.40066 2.15138,3.02131 6.36519,4.57974 14.28372,5.28265 24.69103,2.19179 47.07963,9.04009 66.99439,20.49245 29.06536,16.7146 50.78934,39.99078 65.0204,69.66619 10.44438,21.77924 14.55598,38.44686 15.89453,64.4333 0.49277,9.56649 0.90608,12.27574 2.16296,14.17808 3.47972,5.26668 10.22839,5.6401 15.08901,0.83488 z m -44.6967,-16.32011 c 1.24151,-0.64202 2.88808,-2.35392 3.65904,-3.80423 3.03011,-5.70021 0.57712,-27.49297 -5.13102,-45.58476 -4.9989,-15.8439 -14.99064,-31.6975 -28.44838,-45.13819 -21.6599,-21.63248 -46.53949,-33.07429 -74.81586,-34.40687 l -10.37119,-0.48876 -2.47468,2.64916 c -3.27503,3.50593 -3.79242,10.26387 -1.02143,13.34154 2.0059,2.22792 3.84228,2.7773 16.76682,5.01602 24.01784,4.16025 42.56679,13.22868 57.40094,28.06282 16.39413,16.39414 27.40141,41.97366 29.22952,67.92568 0.55182,7.83377 2.14575,11.9379 5.25699,13.53595 2.27977,1.17096 6.43711,0.70783 9.94925,-1.10836 z m -43.21904,-15.94194 c 4.94836,-3.52354 5.68776,-8.53423 3.11135,-21.08465 -4.45223,-21.68807 -19.09883,-38.22833 -39.98414,-45.15371 -7.15924,-2.37394 -18.11214,-3.5227 -21.40942,-2.24546 -3.09519,1.19895 -5.499,5.44973 -5.5027,9.73077 -0.006,6.67407 1.20433,7.57729 14.54101,10.85325 5.08343,1.24866 10.93267,3.26075 12.99832,4.4713 11.26016,6.59889 18.06942,17.4231 19.83914,31.5369 0.89826,7.16377 2.21446,10.42397 4.99442,12.37115 2.67127,1.87102 8.4521,1.6281 11.41202,-0.47955 z"
     id="path9783"
     transform="scale(0.75)" />
</svg>
