<?xml version="1.0" encoding="UTF-8" standalone="no"?>
<svg
   version="1.0"
   width="512.000000pt"
   height="512.000000pt"
   viewBox="0 0 512.000000 512.000000"
   preserveAspectRatio="xMidYMid meet"
   id="svg9191"
   sodipodi:docname="instagram-green.svg"
   inkscape:version="1.2.1 (9c6d41e410, 2022-07-14)"
   xmlns:inkscape="http://www.inkscape.org/namespaces/inkscape"
   xmlns:sodipodi="http://sodipodi.sourceforge.net/DTD/sodipodi-0.dtd"
   xmlns="http://www.w3.org/2000/svg"
   xmlns:svg="http://www.w3.org/2000/svg">
  <defs
     id="defs9195" />
  <sodipodi:namedview
     id="namedview9193"
     pagecolor="#ffffff"
     bordercolor="#000000"
     borderopacity="0.25"
     inkscape:showpageshadow="2"
     inkscape:pageopacity="0.0"
     inkscape:pagecheckerboard="0"
     inkscape:deskcolor="#d1d1d1"
     inkscape:document-units="pt"
     showgrid="false"
     inkscape:zoom="0.86696539"
     inkscape:cx="9.8043129"
     inkscape:cy="304.51042"
     inkscape:window-width="1920"
     inkscape:window-height="1017"
     inkscape:window-x="-8"
     inkscape:window-y="-8"
     inkscape:window-maximized="1"
     inkscape:current-layer="svg9191" />
  <g
     transform="translate(0.000000,512.000000) scale(0.100000,-0.100000)"
     fill="#000000"
     stroke="none"
     id="g9189">
    <path
       d="M2235 5105 c-462 -60 -885 -237 -1255 -523 -117 -91 -316 -287 -413 -407 -276 -342 -459 -746 -537 -1186 -28 -156 -39 -531 -21 -702 43 -399 182 -790 398 -1122 98 -150 184 -257 318 -394 419 -430 948 -690 1550 -760 134 -16 460 -13 605 4 748 93 1416 512 1833 1150 210 321 344 690 392 1075 20 162 20 477 0 640 -92 742 -510 1412 -1140 1826 -329 216 -695 350 -1085 399 -152 18 -501 18 -645 0z m902 -1195 c266 -21 423 -85 565 -232 50 -51 80 -94 113 -161 92 -186 105 -307 105 -957 0 -651 -13 -771 -106 -958 -64 -132 -164 -232 -296 -296 -188 -93 -306 -106 -958 -106 -652 0 -770 13 -958 106 -132 64 -232 164 -296 296 -93 187 -106 307 -106 958 0 651 13 771 106 958 113 231 342 367 656 391 149 12 1031 12 1175 1z"
       id="path9183" />
    <path
       d="M1918 3670 c-249 -30 -400 -163 -455 -400 -16 -68 -18 -137 -18 -710 0 -573 2 -642 18 -710 50 -216 171 -337 387 -387 68 -16 137 -18 710 -18 573 0 642 2 710 18 216 50 337 171 387 387 16 68 18 137 18 710 0 573 -2 642 -18 710 -25 109 -68 192 -130 254 -63 63 -129 99 -235 129 -74 20 -99 21 -692 23 -338 1 -645 -2 -682 -6z m1414 -230 c49 -14 104 -76 113 -130 10 -61 -25 -127 -85 -157 -53 -27 -90 -29 -137 -7 -117 56 -120 221 -4 281 50 26 61 27 113 13z m-603 -206 c134 -35 284 -130 366 -232 57 -71 119 -196 142 -282 21 -85 21 -235 -1 -320 -37 -143 -129 -291 -234 -375 -71 -57 -196 -119 -282 -142 -38 -9 -104 -16 -160 -16 -115 0 -197 19 -305 73 -148 73 -251 177 -321 325 -48 101 -67 185 -67 295 0 344 254 636 598 689 72 11 187 4 264 -15z"
       id="path9185" />
    <path
       d="M2441 3004 c-200 -54 -341 -237 -341 -444 0 -299 286 -520 575 -445 246 65 394 314 330 560 -65 247 -318 395 -564 329z"
       id="path9187" />
  </g>
  <path
     style="fill:#308b42;stroke:#8b3030;stroke-width:0;stroke-miterlimit:0"
     d="m 264.25806,488.94941 c -16.22169,-0.76862 -23.8156,-2.58929 -36.29261,-8.70135 -6.43998,-3.15473 -8.92712,-4.97552 -14.74922,-10.79762 -5.82211,-5.8221 -7.64289,-8.30924 -10.79762,-14.74922 -6.37354,-13.0108 -7.87951,-19.7589 -8.73646,-39.14726 -0.95306,-21.56269 -0.9529,-125.75587 2.3e-4,-148.03345 0.62478,-14.60302 1.042,-18.18394 2.83037,-24.29224 7.67072,-26.19985 22.71216,-40.91643 48.57845,-47.52926 8.84894,-2.26228 24.52582,-2.72631 92.57188,-2.7401 76.67913,-0.0155 92.1534,0.52655 102.70266,3.59782 23.07302,6.7174 37.78159,20.92515 44.757,43.233 4.23305,13.53763 4.23383,13.55613 4.23383,101.5436 0,87.98747 -7.8e-4,88.00598 -4.23383,101.54361 -3.55461,11.36789 -7.92898,18.75778 -15.7085,26.5373 -7.50699,7.50699 -14.84031,11.94091 -25.52714,15.43439 -12.97417,4.2412 -12.88356,4.23675 -91.95082,4.5062 -40.59705,0.13834 -80.05225,-0.0441 -87.67822,-0.40542 z m 88.66575,-55.52597 c 13.19792,-1.39903 27.65327,-7.01934 41.83206,-16.26451 17.43503,-11.36837 33.06502,-34.9496 37.43297,-56.47574 2.9728,-14.65058 2.28078,-33.71889 -1.64852,-45.42408 -2.79861,-8.33692 -8.25071,-19.47968 -13.38139,-27.34832 -11.42187,-17.51706 -35.60757,-33.46544 -57.06654,-37.63044 -9.28434,-1.80201 -24.10918,-2.33948 -31.54532,-1.14367 -20.35812,3.27381 -36.7166,11.41171 -51.38576,25.56303 -14.31299,13.80772 -23.36851,30.53446 -27.26251,50.35743 -1.33078,6.77457 -1.33418,26.55709 -0.006,33.40403 4.53353,23.36624 19.70243,46.48323 38.76818,59.08163 20.83609,13.76821 39.85427,18.46801 64.26257,15.88064 z m 94.46298,-170.37016 c 8.01789,-4.02255 12.21509,-10.54217 12.20253,-18.95448 -0.007,-4.17165 -0.45406,-5.90301 -2.4081,-9.30993 -3.11169,-5.42532 -8.30559,-9.81771 -13.39717,-11.32975 -5.78112,-1.7168 -7.7527,-1.52594 -13.40297,1.29754 -17.06503,8.5275 -17.38057,30.64654 -0.55392,38.82979 5.07402,2.46764 11.99732,2.25742 17.55963,-0.53317 z"
     id="path10040"
     transform="scale(0.75)" />
  <path
     style="fill:#308b42;stroke:#8b3030;stroke-width:0;stroke-miterlimit:0"
     d="m 311.15571,681.46601 c -24.97828,-1.9816 -59.1369,-9.34899 -83.03013,-17.9081 C 188.76088,649.45656 157.15699,631.47778 123.56511,604.07567 112.19052,594.797 87.506448,570.08957 77.341281,557.80808 37.225795,509.34084 11.553071,449.96735 2.4302025,384.56073 -0.19473919,365.74115 0.05487172,322.00625 2.9375961,295.6591 5.5917228,271.40125 14.769195,237.68259 26.176072,210.27934 47.532261,158.97442 78.612079,116.90803 123.64391,78.357061 154.94111,51.564069 200.56654,27.011413 242.59778,14.343776 261.04295,8.7846558 284.19195,3.9871324 301.77618,2.0793246 314.88077,0.65753817 345.98274,0.18856823 364.72794,1.1301092 428.62449,4.3395309 492.3169,27.92383 546.45958,68.422479 c 19.76662,14.785404 45.24259,39.491981 60.9039,59.064551 40.88985,51.10167 65.97542,111.20876 73.42,175.92038 1.38417,12.03184 1.38526,63.8058 0.002,75.85185 -7.7322,67.31563 -33.77844,128.24639 -77.22633,180.6579 -14.1887,17.11593 -38.84852,40.59733 -57.09916,54.37056 -47.31241,35.7053 -104.62011,58.83104 -163.53007,65.99033 -11.94329,1.45146 -58.69772,2.22531 -71.77379,1.18796 z M 417.59299,521.60077 c 20.78823,-1.63373 32.18484,-4.07843 45.22912,-9.70213 13.01875,-5.61268 20.02238,-10.30028 29.39932,-19.67721 9.35161,-9.35162 14.06587,-16.38368 19.61969,-29.26589 9.67057,-22.4311 10.88724,-36.02258 10.88724,-121.62221 0,-88.02508 -1.35067,-101.58422 -12.46665,-125.15008 -5.35127,-11.3447 -9.65796,-17.51281 -18.08559,-25.90246 -15.89095,-15.81934 -33.73676,-23.98065 -61.53335,-28.14061 -8.8998,-1.33193 -16.96153,-1.46475 -88.90163,-1.46475 -84.34436,0 -86.57819,0.0882 -103.58264,4.09081 -44.49429,10.47329 -70.7842,41.67599 -76.26788,90.5201 -1.69296,15.0795 -2.63247,62.18093 -2.13119,106.84508 0.74974,66.80146 2.22821,80.32441 11.00859,100.69069 5.37663,12.4712 10.36509,20.05765 18.86161,28.68473 8.30906,8.43674 15.76335,13.71734 26.37858,18.68649 18.0702,8.45894 32.12745,11.00728 67.41672,12.22148 24.72312,0.85065 120.37024,0.27033 134.16806,-0.81404 z"
     id="path10042"
     transform="scale(0.75)" />
  <path
     style="fill:#308b42;stroke:#8b3030;stroke-width:0;stroke-miterlimit:0"
     d="m 333.99283,401.75163 c -27.80238,-3.91664 -49.35063,-25.60428 -53.04843,-53.39156 -3.66599,-27.54827 14.13289,-55.45974 41.14947,-64.5289 19.61505,-6.58456 39.34312,-3.17191 56.58375,9.78811 16.25506,12.21915 25.70874,34.72134 23.03338,54.8254 -3.36547,25.29008 -21.39211,45.58598 -46.10447,51.90829 -6.21754,1.59067 -15.83351,2.21295 -21.6137,1.39866 z"
     id="path10044"
     transform="scale(0.75)" />
</svg>
