<?xml version="1.0" standalone="no"?>
<!DOCTYPE svg PUBLIC "-//W3C//DTD SVG 20010904//EN"
 "http://www.w3.org/TR/2001/REC-SVG-20010904/DTD/svg10.dtd">
<svg version="1.0" xmlns="http://www.w3.org/2000/svg"
 width="512.000000pt" height="512.000000pt" viewBox="0 0 512.000000 512.000000"
 preserveAspectRatio="xMidYMid meet">

<g transform="translate(0.000000,512.000000) scale(0.100000,-0.100000)"
fill="#000000" stroke="none">
<path d="M2340 5105 c-787 -79 -1462 -481 -1899 -1130 -255 -379 -393 -787
-432 -1271 -11 -141 -10 -184 4 -337 36 -375 115 -654 273 -968 350 -691 1015
-1198 1769 -1347 227 -46 293 -52 511 -52 288 0 528 38 793 126 749 249 1339
821 1609 1559 106 290 152 554 152 869 0 218 -6 284 -52 511 -148 747 -655
1417 -1336 1764 -318 162 -585 239 -955 276 -173 17 -263 17 -437 0z m631
-309 c480 -91 889 -311 1224 -657 172 -178 286 -336 394 -548 173 -339 251
-664 251 -1043 0 -1246 -1025 -2268 -2275 -2268 -436 0 -841 117 -1210 350
-154 97 -251 174 -396 319 -377 376 -602 843 -660 1371 -15 139 -6 475 16 600
90 505 309 918 672 1270 322 313 697 511 1133 599 170 34 243 40 485 36 198
-2 249 -6 366 -29z"/>
<path d="M1133 3920 c-55 -13 -121 -58 -139 -95 -9 -19 -20 -35 -24 -35 -4 0
-14 -15 -21 -32 -12 -27 -14 -233 -14 -1193 0 -638 3 -1172 8 -1187 4 -15 14
-33 22 -41 8 -8 22 -29 32 -47 11 -19 41 -46 73 -64 l55 -31 1435 0 1435 0 55
31 c39 22 61 44 79 75 13 24 28 47 33 50 5 3 14 24 18 45 13 55 12 1817 0
1872 -6 24 -15 49 -20 55 -6 7 -21 28 -33 47 -28 43 -77 77 -131 91 -23 5 -47
12 -53 14 -10 3 -13 38 -13 128 0 118 -1 126 -31 186 -21 42 -44 70 -69 87
-85 56 -27 54 -1399 53 -696 -1 -1280 -4 -1298 -9z m2620 -62 c43 -23 105 -93
117 -133 6 -23 10 -85 8 -145 l-3 -105 -1340 -3 c-737 -1 -1359 0 -1383 3 -51
7 -104 50 -133 106 -22 44 -25 129 -6 170 19 42 75 100 105 109 45 14 2609 12
2635 -2z m367 -1480 l0 -333 -406 2 -406 2 -69 46 c-111 73 -144 142 -137 284
4 73 9 95 37 148 43 82 131 152 218 172 21 5 201 9 401 10 l362 1 0 -332z"/>
<path d="M3448 2520 c-45 -13 -98 -62 -110 -102 -17 -58 2 -108 54 -144 24
-16 45 -32 46 -36 5 -11 102 -10 102 0 0 4 13 15 29 25 57 34 77 122 42 187
-29 55 -103 87 -163 70z"/>
</g>
</svg>
