<?xml version="1.0" encoding="UTF-8" standalone="no"?>
<svg
   version="1.0"
   width="512.000000pt"
   height="512.000000pt"
   viewBox="0 0 512.000000 512.000000"
   preserveAspectRatio="xMidYMid meet"
   id="svg6873"
   sodipodi:docname="telegram.svg"
   inkscape:version="1.2.1 (9c6d41e410, 2022-07-14)"
   xmlns:inkscape="http://www.inkscape.org/namespaces/inkscape"
   xmlns:sodipodi="http://sodipodi.sourceforge.net/DTD/sodipodi-0.dtd"
   xmlns="http://www.w3.org/2000/svg"
   xmlns:svg="http://www.w3.org/2000/svg">
  <defs
     id="defs6877" />
  <sodipodi:namedview
     id="namedview6875"
     pagecolor="#ffffff"
     bordercolor="#000000"
     borderopacity="0.25"
     inkscape:showpageshadow="2"
     inkscape:pageopacity="0.0"
     inkscape:pagecheckerboard="0"
     inkscape:deskcolor="#d1d1d1"
     inkscape:document-units="pt"
     showgrid="false"
     inkscape:zoom="1.2260742"
     inkscape:cx="342.14894"
     inkscape:cy="341.74114"
     inkscape:window-width="1920"
     inkscape:window-height="1017"
     inkscape:window-x="-8"
     inkscape:window-y="-8"
     inkscape:window-maximized="1"
     inkscape:current-layer="svg6873" />
  <g
     transform="translate(0.000000,512.000000) scale(0.100000,-0.100000)"
     fill="#000000"
     stroke="none"
     id="g6871">
    <path
       d="M4275 4173 c-19 -5 -582 -221 -2545 -978 -509 -196 -951 -371 -983 -388 -71 -37 -107 -81 -107 -128 0 -42 21 -74 61 -95 31 -15 930 -304 949 -304 5 0 468 290 1029 644 561 355 1035 649 1053 654 41 11 80 -1 72 -22 -3 -8 -379 -351 -835 -762 -456 -411 -829 -754 -829 -763 0 -26 -49 -749 -55 -823 l-6 -68 31 0 c17 0 46 6 64 14 19 8 140 117 273 245 131 127 240 231 243 231 3 0 199 -144 437 -320 238 -175 449 -328 471 -339 49 -25 103 -35 148 -27 47 9 107 65 127 118 24 62 617 2864 617 2913 0 138 -95 226 -215 198z"
       id="path6869" />
  </g>
  <path
     style="fill:#308b42;stroke:#8b3030;stroke-width:0;stroke-miterlimit:0"
     d="m 486.91995,555.51383 c -7.5209,-2.37856 -12.82049,-6.10844 -103.58263,-72.90203 -11.66325,-8.5832 -22.00494,-16.03595 -22.98154,-16.56167 -2.31807,-1.24784 -1.06101,-2.30683 -29.2969,24.6808 -26.90575,25.7163 -38.79214,36.32821 -42.39949,37.85332 -1.38261,0.58453 -4.46755,1.32196 -6.85541,1.63873 l -4.34157,0.57592 0.49371,-4.40383 c 0.27154,-2.42211 1.98727,-26.97587 3.81273,-54.56393 1.82545,-27.58805 3.52448,-52.45287 3.77561,-55.25513 l 0.45659,-5.09505 16.85929,-15.71879 c 21.14367,-19.71334 45.92572,-42.36132 84.55503,-77.27366 59.66477,-53.92374 73.75663,-66.71471 96.85385,-87.91279 12.89685,-11.83643 23.44882,-21.99278 23.44882,-22.56965 0,-1.94105 -2.55323,-3.18975 -6.40336,-3.13167 -4.24707,0.0641 -4.40612,0.14933 -32.01687,17.16279 -23.41168,14.42603 -47.46899,29.49408 -127.96448,80.14922 -80.4691,50.63854 -116.91898,73.45564 -119.75358,74.96401 -2.21629,1.17935 -4.53211,0.52981 -51.11699,-14.33742 -55.18328,-17.61134 -76.615108,-24.88332 -79.319054,-26.91355 -5.646153,-4.23939 -6.749765,-11.21483 -2.767759,-17.49381 5.525447,-8.71272 -1.168335,-5.97601 272.124253,-111.25636 149.64681,-57.64836 204.64281,-78.72844 209.52559,-80.31158 6.93439,-2.24835 17.66862,1.17469 22.16343,7.06769 3.05607,4.00672 5.13113,9.17271 5.7008,14.19253 0.56404,4.97018 -0.60479,11.27146 -14.73875,79.45764 -32.3185,155.91351 -65.37788,308.87856 -68.0726,314.97041 -1.93758,4.38023 -8.05807,10.52172 -12.49154,12.53442 -3.97119,1.80282 -10.77756,1.99982 -15.66718,0.45344 z"
     id="path7791"
     transform="scale(0.75)" />
</svg>
