<?xml version="1.0" encoding="UTF-8" standalone="no"?>
<svg
   version="1.0"
   width="512.000000pt"
   height="512.000000pt"
   viewBox="0 0 512.000000 512.000000"
   preserveAspectRatio="xMidYMid meet"
   id="svg7803"
   sodipodi:docname="viber.svg"
   inkscape:version="1.2.1 (9c6d41e410, 2022-07-14)"
   xmlns:inkscape="http://www.inkscape.org/namespaces/inkscape"
   xmlns:sodipodi="http://sodipodi.sourceforge.net/DTD/sodipodi-0.dtd"
   xmlns="http://www.w3.org/2000/svg"
   xmlns:svg="http://www.w3.org/2000/svg">
  <defs
     id="defs7807" />
  <sodipodi:namedview
     id="namedview7805"
     pagecolor="#ffffff"
     bordercolor="#000000"
     borderopacity="0.25"
     inkscape:showpageshadow="2"
     inkscape:pageopacity="0.0"
     inkscape:pagecheckerboard="0"
     inkscape:deskcolor="#d1d1d1"
     inkscape:document-units="pt"
     showgrid="false"
     inkscape:zoom="1.2260742"
     inkscape:cx="342.14894"
     inkscape:cy="341.74114"
     inkscape:window-width="1920"
     inkscape:window-height="1017"
     inkscape:window-x="-8"
     inkscape:window-y="-8"
     inkscape:window-maximized="1"
     inkscape:current-layer="svg7803" />
  <g
     transform="translate(0.000000,512.000000) scale(0.100000,-0.100000)"
     fill="#000000"
     stroke="none"
     id="g7801">
    <path
       d="M1030 5099 c-307 -65 -572 -228 -754 -464 -132 -171 -191 -291 -248 -505 l-23 -85 -2 -1452 c-3 -1439 -3 -1454 17 -1555 54 -266 166 -474 355 -663 189 -189 397 -301 663 -355 101 -20 116 -20 1555 -17 l1452 2 85 23 c169 45 286 96 410 178 237 157 421 391 510 649 70 201 65 81 65 1705 0 1624 5 1504 -65 1705 -89 258 -273 492 -510 649 -124 82 -241 133 -410 178 l-85 23 -1460 2 c-1426 2 -1462 1 -1555 -18z m1830 -982 c530 -123 980 -558 1114 -1077 40 -155 59 -411 35 -464 -24 -52 -119 -55 -138 -4 -4 13 -11 59 -15 103 -20 226 -90 478 -182 656 -189 366 -534 575 -1087 658 -70 11 -134 25 -142 31 -25 20 -18 77 11 107 l26 26 136 -6 c91 -4 173 -14 242 -30z m-1344 -35 c165 -85 537 -587 560 -756 12 -85 -30 -153 -153 -246 -171 -129 -190 -237 -83 -458 137 -283 348 -496 652 -657 134 -71 180 -86 255 -87 91 0 140 27 208 115 103 132 176 173 297 165 93 -7 150 -32 298 -133 148 -101 376 -274 417 -317 112 -119 96 -280 -48 -456 -124 -153 -345 -282 -484 -282 -90 0 -252 62 -527 201 -868 440 -1526 1118 -1917 1976 -84 183 -109 254 -122 347 -11 82 0 177 28 249 60 154 207 280 398 344 83 28 161 26 221 -5z m1349 -347 c287 -72 537 -270 665 -525 63 -126 81 -198 87 -351 5 -130 4 -138 -16 -158 -27 -27 -84 -28 -110 -2 -11 11 -22 40 -25 72 -35 276 -108 461 -231 585 -121 122 -288 195 -570 249 -43 8 -86 22 -96 31 -30 27 -21 101 15 127 19 14 177 -1 281 -28z m87 -389 c122 -60 235 -185 278 -309 23 -64 26 -159 7 -197 -24 -48 -104 -52 -128 -7 -7 12 -19 51 -26 87 -37 174 -126 266 -300 306 -112 26 -136 49 -108 108 22 46 48 56 131 53 58 -3 85 -11 146 -41z"
       id="path7799" />
  </g>
  <path
     style="fill:#308b42;stroke:#8b3030;stroke-width:0;stroke-miterlimit:0"
     d="m 158.6364,681.44985 c -15.33899,-0.70208 -18.22137,-1.14184 -32.6117,-4.97558 C 96.806962,668.69034 73.267463,654.86297 50.53558,632.13109 27.338679,608.93419 13.72447,585.44838 5.7706453,554.90731 0.49681911,534.65689 0.79298095,548.38057 1.0560339,336.43967 L 1.2964565,142.73198 4.1743298,132.2402 C 11.781823,104.50579 19.164209,89.089354 34.887096,68.103544 41.665571,59.056112 54.589891,45.489347 62.991269,38.602362 83.404739,21.868529 107.49852,10.286245 135.79928,3.6023314 147.81867,0.76366095 188.07789,0.2927975 371.91876,0.84072708 l 168.01593,0.50076402 11.68237,3.212506 c 32.14157,8.8385339 55.51481,21.7200109 77.43546,42.6762909 20.97191,20.049274 36.14802,43.945701 45.37075,71.441162 4.48902,13.38294 5.27845,18.13896 6.22746,37.51812 0.96329,19.67091 0.96329,350.61662 0,370.28753 -0.94901,19.37915 -1.73844,24.13518 -6.22746,37.51812 -9.22273,27.49546 -24.39884,51.39188 -45.37075,71.44116 -21.91182,20.94783 -45.2294,33.80177 -77.43546,42.68668 l -11.68237,3.2229 -183.51255,0.37859 c -100.9319,0.20823 -189.93548,0.0846 -197.78574,-0.2747 z M 474.27798,550.54171 c 28.784,-10.57814 55.60755,-36.02228 62.77177,-59.5437 2.16585,-7.11089 2.333,-17.13208 0.38161,-22.87973 -3.40365,-10.02523 -8.57247,-15.18793 -35.01479,-34.97334 -45.49231,-34.03952 -57.41338,-40.06151 -76.18807,-38.48677 -11.47995,0.9629 -19.15091,5.92998 -31.12935,20.15682 -12.05258,14.31492 -16.12108,16.65572 -28.88967,16.6216 -9.92942,-0.0265 -13.1033,-0.99168 -28.37047,-8.62722 -41.87089,-20.94081 -71.08899,-49.04307 -90.42865,-86.97515 -7.6738,-15.05109 -9.92072,-22.24366 -10.00258,-32.01901 -0.0563,-6.71471 0.21648,-8.3467 2.04441,-12.23417 2.69001,-5.72086 8.80004,-12.38209 18.74423,-20.43518 24.99064,-20.23813 25.25854,-31.15134 1.67077,-68.05864 -18.33857,-28.69399 -44.94412,-58.67366 -57.59887,-64.90358 -4.7812,-2.35377 -6.5642,-2.77214 -13.0171,-3.05437 -9.10637,-0.39828 -16.66467,1.43909 -28.02115,6.81175 -30.14164,14.25979 -45.87059,36.56051 -46.00338,65.22425 -0.0712,15.37205 2.5649,24.97256 13.69654,49.88177 55.42975,124.03478 147.95207,217.56395 274.80437,277.79481 19.79323,9.39804 30.91785,13.91403 42.00398,17.05135 7.92062,2.24148 20.37391,1.6519 28.5464,-1.35149 z m 57.83042,-208.0445 c 3.77368,-3.17534 4.4351,-6.9208 3.87832,-21.96197 -1.65729,-44.77123 -15.39635,-81.90463 -42.98371,-116.17468 -26.94687,-33.47439 -65.68886,-58.96732 -105.5211,-69.43479 -12.2404,-3.21664 -22.41266,-4.6153 -41.15163,-5.65824 -14.5652,-0.81065 -15.92292,-0.76923 -17.35807,0.52956 -4.21719,3.8165 -6.48384,10.82841 -4.80811,14.87396 1.22056,2.94671 2.63372,3.3657 23.69412,7.02505 54.59666,9.48646 88.46026,24.49888 115.00338,50.98331 21.39371,21.34642 34.35493,46.25477 44.10432,84.75787 2.92705,11.55978 4.36289,19.98431 7.58345,44.49462 1.04033,7.91755 1.42498,9.16403 3.33489,10.80685 3.23755,2.78484 10.77971,2.65676 14.22414,-0.24154 z m -55.64059,-17.53043 c 3.69723,-1.40085 5.86016,-3.97453 6.38781,-7.60092 0.70051,-4.81431 -1.00263,-30.41322 -2.51767,-37.84171 -3.99003,-19.56388 -16.32222,-40.69564 -34.15917,-58.53331 -22.89059,-22.89151 -48.904,-35.58314 -81.8462,-39.93178 -5.06957,-0.66922 -11.55164,-1.21677 -14.4046,-1.21677 -4.7641,0 -5.35539,0.19989 -7.24934,2.45071 -2.37834,2.82652 -3.52791,8.6837 -2.44522,12.45881 0.4384,1.52861 1.75414,3.15495 3.26742,4.03876 1.3934,0.81379 9.64206,3.08497 18.33033,5.04707 35.05464,7.91645 53.31748,16.28855 68.49707,31.40059 15.53498,15.46585 24.52123,36.26373 30.03834,69.52109 1.69504,10.21777 2.96093,15.6067 3.99326,16.99934 2.8345,3.82385 7.33539,5.0164 12.10797,3.20812 z m -47.15918,-17.67343 c 3.3308,-2.47113 4.38804,-6.75724 3.97631,-16.12011 -0.62139,-14.13017 -6.43657,-26.38631 -18.52539,-39.04427 -7.40663,-7.75534 -13.75605,-12.40549 -22.91673,-16.7836 -10.53103,-5.03305 -24.33597,-6.30854 -30.99706,-2.86396 -2.89266,1.49585 -5.64703,6.63596 -5.64703,10.53827 0,4.92294 2.35117,6.32409 17.73866,10.57105 21.84293,6.02868 31.77941,16.59297 37.73414,40.11825 2.53353,10.00921 4.03677,13.01854 7.40789,14.82976 2.61734,1.40625 8.54055,0.74932 11.22921,-1.24539 z"
     id="path8289"
     transform="scale(0.75)" />
</svg>
